<svg width="408" height="301" viewBox="0 0 408 301" fill="none" xmlns="http://www.w3.org/2000/svg">
<g filter="url(#filter0_d_875_426)">
<rect x="5.5" y="1" width="397" height="291" rx="11" stroke="#D731E8" stroke-width="2" shape-rendering="crispEdges"/>
<ellipse cx="128" cy="146.5" rx="107.5" ry="130.5" fill="#D731E8"/>
<path d="M234.5 146.5C234.5 218.211 186.646 276 128 276C69.3543 276 21.5 218.211 21.5 146.5C21.5 74.789 69.3543 17 128 17C186.646 17 234.5 74.789 234.5 146.5Z" stroke="#F9F9F9" stroke-opacity="0.5" stroke-width="2"/>
<path d="M386.5 146.5C386.5 218.211 338.646 276 280 276C221.354 276 173.5 218.211 173.5 146.5C173.5 74.789 221.354 17 280 17C338.646 17 386.5 74.789 386.5 146.5Z" fill="#D731E8" stroke="#F9F9F9" stroke-width="2"/>
</g>
<defs>
<filter id="filter0_d_875_426" x="0.5" y="0" width="407" height="301" filterUnits="userSpaceOnUse" color-interpolation-filters="sRGB">
<feFlood flood-opacity="0" result="BackgroundImageFix"/>
<feColorMatrix in="SourceAlpha" type="matrix" values="0 0 0 0 0 0 0 0 0 0 0 0 0 0 0 0 0 0 127 0" result="hardAlpha"/>
<feOffset dy="4"/>
<feGaussianBlur stdDeviation="2"/>
<feComposite in2="hardAlpha" operator="out"/>
<feColorMatrix type="matrix" values="0 0 0 0 0.843137 0 0 0 0 0.192157 0 0 0 0 0.909804 0 0 0 0.25 0"/>
<feBlend mode="normal" in2="BackgroundImageFix" result="effect1_dropShadow_875_426"/>
<feBlend mode="normal" in="SourceGraphic" in2="effect1_dropShadow_875_426" result="shape"/>
</filter>
</defs>
</svg>
